<mxfile host="app.diagrams.net" modified="2024-05-30T10:51:40.420Z" agent="Mozilla/5.0 (Windows NT 10.0; Win64; x64) AppleWebKit/537.36 (KHTML, like Gecko) Chrome/123.0.0.0 Safari/537.36 OPR/109.0.0.0" etag="pIp63pzQa6ezyiWIvQpz" version="24.4.10" type="github">
  <diagram name="Page-1" id="CtzkoCsJIi4qvO2qvNgw">
    <mxGraphModel dx="753" dy="432" grid="1" gridSize="10" guides="1" tooltips="1" connect="1" arrows="1" fold="1" page="1" pageScale="1" pageWidth="827" pageHeight="1169" math="0" shadow="0">
      <root>
        <mxCell id="0" />
        <mxCell id="1" parent="0" />
        <mxCell id="U_afdEmADa3MrpLb5g1u-1" value="Partie" style="swimlane;fontStyle=0;childLayout=stackLayout;horizontal=1;startSize=30;horizontalStack=0;resizeParent=1;resizeParentMax=0;resizeLast=0;collapsible=1;marginBottom=0;whiteSpace=wrap;html=1;" parent="1" vertex="1">
          <mxGeometry x="330" width="140" height="90" as="geometry" />
        </mxCell>
        <mxCell id="U_afdEmADa3MrpLb5g1u-2" value="&lt;u&gt;id_partie&lt;/u&gt;" style="text;strokeColor=none;fillColor=none;align=left;verticalAlign=middle;spacingLeft=4;spacingRight=4;overflow=hidden;points=[[0,0.5],[1,0.5]];portConstraint=eastwest;rotatable=0;whiteSpace=wrap;html=1;" parent="U_afdEmADa3MrpLb5g1u-1" vertex="1">
          <mxGeometry y="30" width="140" height="30" as="geometry" />
        </mxCell>
        <mxCell id="U_afdEmADa3MrpLb5g1u-3" value="unique_code" style="text;strokeColor=none;fillColor=none;align=left;verticalAlign=middle;spacingLeft=4;spacingRight=4;overflow=hidden;points=[[0,0.5],[1,0.5]];portConstraint=eastwest;rotatable=0;whiteSpace=wrap;html=1;" parent="U_afdEmADa3MrpLb5g1u-1" vertex="1">
          <mxGeometry y="60" width="140" height="30" as="geometry" />
        </mxCell>
        <mxCell id="U_afdEmADa3MrpLb5g1u-5" value="Grille" style="swimlane;fontStyle=0;childLayout=stackLayout;horizontal=1;startSize=30;horizontalStack=0;resizeParent=1;resizeParentMax=0;resizeLast=0;collapsible=1;marginBottom=0;whiteSpace=wrap;html=1;" parent="1" vertex="1">
          <mxGeometry x="330" y="320" width="140" height="60" as="geometry" />
        </mxCell>
        <mxCell id="U_afdEmADa3MrpLb5g1u-6" value="&lt;u&gt;id_grille&lt;/u&gt;" style="text;strokeColor=none;fillColor=none;align=left;verticalAlign=middle;spacingLeft=4;spacingRight=4;overflow=hidden;points=[[0,0.5],[1,0.5]];portConstraint=eastwest;rotatable=0;whiteSpace=wrap;html=1;" parent="U_afdEmADa3MrpLb5g1u-5" vertex="1">
          <mxGeometry y="30" width="140" height="30" as="geometry" />
        </mxCell>
        <mxCell id="U_afdEmADa3MrpLb5g1u-9" value="Carte" style="swimlane;fontStyle=0;childLayout=stackLayout;horizontal=1;startSize=30;horizontalStack=0;resizeParent=1;resizeParentMax=0;resizeLast=0;collapsible=1;marginBottom=0;whiteSpace=wrap;html=1;" parent="1" vertex="1">
          <mxGeometry x="680" y="320" width="140" height="120" as="geometry" />
        </mxCell>
        <mxCell id="U_afdEmADa3MrpLb5g1u-10" value="&lt;u&gt;id_carte&lt;/u&gt;" style="text;strokeColor=none;fillColor=none;align=left;verticalAlign=middle;spacingLeft=4;spacingRight=4;overflow=hidden;points=[[0,0.5],[1,0.5]];portConstraint=eastwest;rotatable=0;whiteSpace=wrap;html=1;" parent="U_afdEmADa3MrpLb5g1u-9" vertex="1">
          <mxGeometry y="30" width="140" height="30" as="geometry" />
        </mxCell>
        <mxCell id="U_afdEmADa3MrpLb5g1u-11" value="couleur" style="text;strokeColor=none;fillColor=none;align=left;verticalAlign=middle;spacingLeft=4;spacingRight=4;overflow=hidden;points=[[0,0.5],[1,0.5]];portConstraint=eastwest;rotatable=0;whiteSpace=wrap;html=1;" parent="U_afdEmADa3MrpLb5g1u-9" vertex="1">
          <mxGeometry y="60" width="140" height="30" as="geometry" />
        </mxCell>
        <mxCell id="U_afdEmADa3MrpLb5g1u-12" value="etat" style="text;strokeColor=none;fillColor=none;align=left;verticalAlign=middle;spacingLeft=4;spacingRight=4;overflow=hidden;points=[[0,0.5],[1,0.5]];portConstraint=eastwest;rotatable=0;whiteSpace=wrap;html=1;" parent="U_afdEmADa3MrpLb5g1u-9" vertex="1">
          <mxGeometry y="90" width="140" height="30" as="geometry" />
        </mxCell>
        <mxCell id="U_afdEmADa3MrpLb5g1u-13" value="Mot" style="swimlane;fontStyle=0;childLayout=stackLayout;horizontal=1;startSize=30;horizontalStack=0;resizeParent=1;resizeParentMax=0;resizeLast=0;collapsible=1;marginBottom=0;whiteSpace=wrap;html=1;" parent="1" vertex="1">
          <mxGeometry x="1040" y="320" width="140" height="90" as="geometry" />
        </mxCell>
        <mxCell id="U_afdEmADa3MrpLb5g1u-14" value="&lt;u style=&quot;&quot;&gt;id_mot&lt;/u&gt;" style="text;strokeColor=none;fillColor=none;align=left;verticalAlign=middle;spacingLeft=4;spacingRight=4;overflow=hidden;points=[[0,0.5],[1,0.5]];portConstraint=eastwest;rotatable=0;whiteSpace=wrap;html=1;" parent="U_afdEmADa3MrpLb5g1u-13" vertex="1">
          <mxGeometry y="30" width="140" height="30" as="geometry" />
        </mxCell>
        <mxCell id="U_afdEmADa3MrpLb5g1u-15" value="texte" style="text;strokeColor=none;fillColor=none;align=left;verticalAlign=middle;spacingLeft=4;spacingRight=4;overflow=hidden;points=[[0,0.5],[1,0.5]];portConstraint=eastwest;rotatable=0;whiteSpace=wrap;html=1;" parent="U_afdEmADa3MrpLb5g1u-13" vertex="1">
          <mxGeometry y="60" width="140" height="30" as="geometry" />
        </mxCell>
        <mxCell id="U_afdEmADa3MrpLb5g1u-18" value="Joueur" style="swimlane;fontStyle=0;childLayout=stackLayout;horizontal=1;startSize=30;horizontalStack=0;resizeParent=1;resizeParentMax=0;resizeLast=0;collapsible=1;marginBottom=0;whiteSpace=wrap;html=1;" parent="1" vertex="1">
          <mxGeometry x="680" width="140" height="150" as="geometry" />
        </mxCell>
        <mxCell id="U_afdEmADa3MrpLb5g1u-19" value="&lt;u&gt;id_joueur&lt;/u&gt;" style="text;strokeColor=none;fillColor=none;align=left;verticalAlign=middle;spacingLeft=4;spacingRight=4;overflow=hidden;points=[[0,0.5],[1,0.5]];portConstraint=eastwest;rotatable=0;whiteSpace=wrap;html=1;" parent="U_afdEmADa3MrpLb5g1u-18" vertex="1">
          <mxGeometry y="30" width="140" height="30" as="geometry" />
        </mxCell>
        <mxCell id="U_afdEmADa3MrpLb5g1u-20" value="pseudo" style="text;strokeColor=none;fillColor=none;align=left;verticalAlign=middle;spacingLeft=4;spacingRight=4;overflow=hidden;points=[[0,0.5],[1,0.5]];portConstraint=eastwest;rotatable=0;whiteSpace=wrap;html=1;" parent="U_afdEmADa3MrpLb5g1u-18" vertex="1">
          <mxGeometry y="60" width="140" height="30" as="geometry" />
        </mxCell>
        <mxCell id="U_afdEmADa3MrpLb5g1u-22" value="score" style="text;strokeColor=none;fillColor=none;align=left;verticalAlign=middle;spacingLeft=4;spacingRight=4;overflow=hidden;points=[[0,0.5],[1,0.5]];portConstraint=eastwest;rotatable=0;whiteSpace=wrap;html=1;" parent="U_afdEmADa3MrpLb5g1u-18" vertex="1">
          <mxGeometry y="90" width="140" height="30" as="geometry" />
        </mxCell>
        <mxCell id="U_afdEmADa3MrpLb5g1u-21" value="role" style="text;strokeColor=none;fillColor=none;align=left;verticalAlign=middle;spacingLeft=4;spacingRight=4;overflow=hidden;points=[[0,0.5],[1,0.5]];portConstraint=eastwest;rotatable=0;whiteSpace=wrap;html=1;" parent="U_afdEmADa3MrpLb5g1u-18" vertex="1">
          <mxGeometry y="120" width="140" height="30" as="geometry" />
        </mxCell>
        <mxCell id="U_afdEmADa3MrpLb5g1u-23" value="Tour" style="swimlane;fontStyle=0;childLayout=stackLayout;horizontal=1;startSize=30;horizontalStack=0;resizeParent=1;resizeParentMax=0;resizeLast=0;collapsible=1;marginBottom=0;whiteSpace=wrap;html=1;" parent="1" vertex="1">
          <mxGeometry x="60" y="130" width="140" height="120" as="geometry" />
        </mxCell>
        <mxCell id="U_afdEmADa3MrpLb5g1u-24" value="&lt;u&gt;id_tour&lt;/u&gt;" style="text;strokeColor=none;fillColor=none;align=left;verticalAlign=middle;spacingLeft=4;spacingRight=4;overflow=hidden;points=[[0,0.5],[1,0.5]];portConstraint=eastwest;rotatable=0;whiteSpace=wrap;html=1;" parent="U_afdEmADa3MrpLb5g1u-23" vertex="1">
          <mxGeometry y="30" width="140" height="30" as="geometry" />
        </mxCell>
        <mxCell id="U_afdEmADa3MrpLb5g1u-25" value="indice" style="text;strokeColor=none;fillColor=none;align=left;verticalAlign=middle;spacingLeft=4;spacingRight=4;overflow=hidden;points=[[0,0.5],[1,0.5]];portConstraint=eastwest;rotatable=0;whiteSpace=wrap;html=1;" parent="U_afdEmADa3MrpLb5g1u-23" vertex="1">
          <mxGeometry y="60" width="140" height="30" as="geometry" />
        </mxCell>
        <mxCell id="U_afdEmADa3MrpLb5g1u-26" value="word_to_find_nb&lt;div&gt;&lt;br&gt;&lt;/div&gt;" style="text;strokeColor=none;fillColor=none;align=left;verticalAlign=middle;spacingLeft=4;spacingRight=4;overflow=hidden;points=[[0,0.5],[1,0.5]];portConstraint=eastwest;rotatable=0;whiteSpace=wrap;html=1;" parent="U_afdEmADa3MrpLb5g1u-23" vertex="1">
          <mxGeometry y="90" width="140" height="30" as="geometry" />
        </mxCell>
        <mxCell id="DvJZOeJBMo1PSdzCHPmb-26" style="edgeStyle=orthogonalEdgeStyle;rounded=0;orthogonalLoop=1;jettySize=auto;html=1;exitX=0;exitY=0.5;exitDx=0;exitDy=0;" edge="1" parent="1" source="DvJZOeJBMo1PSdzCHPmb-1">
          <mxGeometry relative="1" as="geometry">
            <mxPoint x="130" y="120" as="targetPoint" />
          </mxGeometry>
        </mxCell>
        <mxCell id="DvJZOeJBMo1PSdzCHPmb-1" value="CaractÃ©rise" style="ellipse;whiteSpace=wrap;html=1;align=center;" vertex="1" parent="1">
          <mxGeometry x="150" y="25" width="100" height="40" as="geometry" />
        </mxCell>
        <mxCell id="DvJZOeJBMo1PSdzCHPmb-21" style="edgeStyle=orthogonalEdgeStyle;rounded=0;orthogonalLoop=1;jettySize=auto;html=1;exitX=0.5;exitY=0;exitDx=0;exitDy=0;" edge="1" parent="1" source="DvJZOeJBMo1PSdzCHPmb-2">
          <mxGeometry relative="1" as="geometry">
            <mxPoint x="400" y="100" as="targetPoint" />
          </mxGeometry>
        </mxCell>
        <mxCell id="DvJZOeJBMo1PSdzCHPmb-2" value="Utilise" style="ellipse;whiteSpace=wrap;html=1;align=center;" vertex="1" parent="1">
          <mxGeometry x="350" y="180" width="100" height="40" as="geometry" />
        </mxCell>
        <mxCell id="DvJZOeJBMo1PSdzCHPmb-23" style="edgeStyle=orthogonalEdgeStyle;rounded=0;orthogonalLoop=1;jettySize=auto;html=1;exitX=0;exitY=0.5;exitDx=0;exitDy=0;" edge="1" parent="1" source="DvJZOeJBMo1PSdzCHPmb-3">
          <mxGeometry relative="1" as="geometry">
            <mxPoint x="480" y="40" as="targetPoint" />
          </mxGeometry>
        </mxCell>
        <mxCell id="DvJZOeJBMo1PSdzCHPmb-24" style="edgeStyle=orthogonalEdgeStyle;rounded=0;orthogonalLoop=1;jettySize=auto;html=1;exitX=1;exitY=0.5;exitDx=0;exitDy=0;" edge="1" parent="1" source="DvJZOeJBMo1PSdzCHPmb-3">
          <mxGeometry relative="1" as="geometry">
            <mxPoint x="670" y="40" as="targetPoint" />
          </mxGeometry>
        </mxCell>
        <mxCell id="DvJZOeJBMo1PSdzCHPmb-3" value="Participe" style="ellipse;whiteSpace=wrap;html=1;align=center;" vertex="1" parent="1">
          <mxGeometry x="530" y="20" width="100" height="40" as="geometry" />
        </mxCell>
        <mxCell id="DvJZOeJBMo1PSdzCHPmb-19" style="edgeStyle=orthogonalEdgeStyle;rounded=0;orthogonalLoop=1;jettySize=auto;html=1;exitX=1;exitY=0.5;exitDx=0;exitDy=0;" edge="1" parent="1" source="DvJZOeJBMo1PSdzCHPmb-4">
          <mxGeometry relative="1" as="geometry">
            <mxPoint x="660" y="350" as="targetPoint" />
          </mxGeometry>
        </mxCell>
        <mxCell id="DvJZOeJBMo1PSdzCHPmb-20" style="edgeStyle=orthogonalEdgeStyle;rounded=0;orthogonalLoop=1;jettySize=auto;html=1;exitX=0;exitY=0.5;exitDx=0;exitDy=0;" edge="1" parent="1" source="DvJZOeJBMo1PSdzCHPmb-4">
          <mxGeometry relative="1" as="geometry">
            <mxPoint x="480" y="350" as="targetPoint" />
          </mxGeometry>
        </mxCell>
        <mxCell id="DvJZOeJBMo1PSdzCHPmb-4" value="AttribuÃ©" style="ellipse;whiteSpace=wrap;html=1;align=center;" vertex="1" parent="1">
          <mxGeometry x="530" y="330" width="100" height="40" as="geometry" />
        </mxCell>
        <mxCell id="DvJZOeJBMo1PSdzCHPmb-12" style="edgeStyle=orthogonalEdgeStyle;rounded=0;orthogonalLoop=1;jettySize=auto;html=1;exitX=0.5;exitY=1;exitDx=0;exitDy=0;" edge="1" parent="1" source="DvJZOeJBMo1PSdzCHPmb-5" target="U_afdEmADa3MrpLb5g1u-9">
          <mxGeometry relative="1" as="geometry" />
        </mxCell>
        <mxCell id="DvJZOeJBMo1PSdzCHPmb-13" style="edgeStyle=orthogonalEdgeStyle;rounded=0;orthogonalLoop=1;jettySize=auto;html=1;exitX=0.5;exitY=0;exitDx=0;exitDy=0;" edge="1" parent="1" source="DvJZOeJBMo1PSdzCHPmb-5">
          <mxGeometry relative="1" as="geometry">
            <mxPoint x="750" y="160" as="targetPoint" />
          </mxGeometry>
        </mxCell>
        <mxCell id="DvJZOeJBMo1PSdzCHPmb-5" value="Decouvre" style="ellipse;whiteSpace=wrap;html=1;align=center;" vertex="1" parent="1">
          <mxGeometry x="700" y="220" width="100" height="40" as="geometry" />
        </mxCell>
        <mxCell id="DvJZOeJBMo1PSdzCHPmb-17" style="edgeStyle=orthogonalEdgeStyle;rounded=0;orthogonalLoop=1;jettySize=auto;html=1;exitX=0;exitY=0.5;exitDx=0;exitDy=0;" edge="1" parent="1" source="DvJZOeJBMo1PSdzCHPmb-8">
          <mxGeometry relative="1" as="geometry">
            <mxPoint x="830" y="350" as="targetPoint" />
          </mxGeometry>
        </mxCell>
        <mxCell id="DvJZOeJBMo1PSdzCHPmb-18" style="edgeStyle=orthogonalEdgeStyle;rounded=0;orthogonalLoop=1;jettySize=auto;html=1;exitX=1;exitY=0.5;exitDx=0;exitDy=0;" edge="1" parent="1" source="DvJZOeJBMo1PSdzCHPmb-8">
          <mxGeometry relative="1" as="geometry">
            <mxPoint x="1030" y="350" as="targetPoint" />
          </mxGeometry>
        </mxCell>
        <mxCell id="DvJZOeJBMo1PSdzCHPmb-8" value="AssociÃ©" style="ellipse;whiteSpace=wrap;html=1;align=center;" vertex="1" parent="1">
          <mxGeometry x="880" y="330" width="100" height="40" as="geometry" />
        </mxCell>
        <mxCell id="DvJZOeJBMo1PSdzCHPmb-22" style="edgeStyle=orthogonalEdgeStyle;rounded=0;orthogonalLoop=1;jettySize=auto;html=1;exitX=0.5;exitY=1;exitDx=0;exitDy=0;entryX=0.505;entryY=-0.122;entryDx=0;entryDy=0;entryPerimeter=0;" edge="1" parent="1" source="DvJZOeJBMo1PSdzCHPmb-2" target="U_afdEmADa3MrpLb5g1u-5">
          <mxGeometry relative="1" as="geometry" />
        </mxCell>
        <mxCell id="DvJZOeJBMo1PSdzCHPmb-25" style="edgeStyle=orthogonalEdgeStyle;rounded=0;orthogonalLoop=1;jettySize=auto;html=1;exitX=1;exitY=0.5;exitDx=0;exitDy=0;entryX=-0.067;entryY=0.489;entryDx=0;entryDy=0;entryPerimeter=0;" edge="1" parent="1" source="DvJZOeJBMo1PSdzCHPmb-1" target="U_afdEmADa3MrpLb5g1u-2">
          <mxGeometry relative="1" as="geometry" />
        </mxCell>
        <mxCell id="DvJZOeJBMo1PSdzCHPmb-28" value="0,N" style="text;html=1;align=center;verticalAlign=middle;whiteSpace=wrap;rounded=0;" vertex="1" parent="1">
          <mxGeometry x="60" y="90" width="60" height="30" as="geometry" />
        </mxCell>
        <mxCell id="DvJZOeJBMo1PSdzCHPmb-29" value="1,N" style="text;html=1;align=center;verticalAlign=middle;whiteSpace=wrap;rounded=0;" vertex="1" parent="1">
          <mxGeometry x="470" y="50" width="60" height="30" as="geometry" />
        </mxCell>
        <mxCell id="DvJZOeJBMo1PSdzCHPmb-30" value="1,N" style="text;html=1;align=center;verticalAlign=middle;whiteSpace=wrap;rounded=0;" vertex="1" parent="1">
          <mxGeometry x="620" y="50" width="60" height="30" as="geometry" />
        </mxCell>
        <mxCell id="DvJZOeJBMo1PSdzCHPmb-31" value="1,1" style="text;html=1;align=center;verticalAlign=middle;whiteSpace=wrap;rounded=0;" vertex="1" parent="1">
          <mxGeometry x="827" y="365" width="60" height="30" as="geometry" />
        </mxCell>
        <mxCell id="DvJZOeJBMo1PSdzCHPmb-32" value="1,1" style="text;html=1;align=center;verticalAlign=middle;whiteSpace=wrap;rounded=0;" vertex="1" parent="1">
          <mxGeometry x="970" y="365" width="60" height="30" as="geometry" />
        </mxCell>
        <mxCell id="DvJZOeJBMo1PSdzCHPmb-33" value="1,1" style="text;html=1;align=center;verticalAlign=middle;whiteSpace=wrap;rounded=0;" vertex="1" parent="1">
          <mxGeometry x="330" y="280" width="60" height="30" as="geometry" />
        </mxCell>
        <mxCell id="DvJZOeJBMo1PSdzCHPmb-34" value="1,N" style="text;html=1;align=center;verticalAlign=middle;whiteSpace=wrap;rounded=0;" vertex="1" parent="1">
          <mxGeometry x="330" y="100" width="60" height="30" as="geometry" />
        </mxCell>
        <mxCell id="DvJZOeJBMo1PSdzCHPmb-35" value="1,1" style="text;html=1;align=center;verticalAlign=middle;whiteSpace=wrap;rounded=0;" vertex="1" parent="1">
          <mxGeometry x="260" y="10" width="60" height="30" as="geometry" />
        </mxCell>
        <mxCell id="DvJZOeJBMo1PSdzCHPmb-36" value="1,N" style="text;html=1;align=center;verticalAlign=middle;whiteSpace=wrap;rounded=0;" vertex="1" parent="1">
          <mxGeometry x="680" y="280" width="60" height="30" as="geometry" />
        </mxCell>
        <mxCell id="DvJZOeJBMo1PSdzCHPmb-37" value="1,1" style="text;html=1;align=center;verticalAlign=middle;whiteSpace=wrap;rounded=0;" vertex="1" parent="1">
          <mxGeometry x="680" y="160" width="60" height="30" as="geometry" />
        </mxCell>
        <mxCell id="DvJZOeJBMo1PSdzCHPmb-38" value="1,N" style="text;html=1;align=center;verticalAlign=middle;whiteSpace=wrap;rounded=0;" vertex="1" parent="1">
          <mxGeometry x="640" y="320" width="60" height="30" as="geometry" />
        </mxCell>
        <mxCell id="DvJZOeJBMo1PSdzCHPmb-39" value="1,N" style="text;html=1;align=center;verticalAlign=middle;whiteSpace=wrap;rounded=0;" vertex="1" parent="1">
          <mxGeometry x="480" y="310" width="60" height="30" as="geometry" />
        </mxCell>
      </root>
    </mxGraphModel>
  </diagram>
</mxfile>
